<svg width="46" height="46" viewBox="0 0 46 46" fill="none" xmlns="http://www.w3.org/2000/svg">
<path d="M45.5 23C45.5 27.4501 44.1804 31.8002 41.7081 35.5003C39.2357 39.2004 35.7217 42.0843 31.6104 43.7873C27.499 45.4903 22.975 45.9358 18.6105 45.0677C14.2459 44.1995 10.2368 42.0566 7.09009 38.9099C3.94341 35.7632 1.80049 31.7541 0.932326 27.3895C0.0641585 23.025 0.509734 18.501 2.21271 14.3896C3.91568 10.2783 6.79956 6.76427 10.4997 4.29193C14.1998 1.8196 18.5499 0.5 23 0.5C28.9674 0.5 34.6903 2.87053 38.9099 7.0901C43.1295 11.3097 45.5 17.0326 45.5 23ZM3.49999 23C3.49999 26.8567 4.64365 30.6269 6.78634 33.8336C8.92902 37.0404 11.9745 39.5397 15.5377 41.0156C19.1008 42.4916 23.0216 42.8777 26.8043 42.1253C30.5869 41.3729 34.0615 39.5157 36.7886 36.7886C39.5157 34.0615 41.3729 30.5869 42.1253 26.8043C42.8777 23.0216 42.4916 19.1008 41.0156 15.5377C39.5397 11.9745 37.0404 8.92903 33.8336 6.78634C30.6269 4.64365 26.8567 3.5 23 3.5C17.8283 3.5 12.8684 5.55446 9.21141 9.21142C5.55445 12.8684 3.49999 17.8283 3.49999 23Z" fill="#ECF7FF"/>
<path d="M28.805 14.615L20.435 23L28.805 31.385C29.0844 31.666 29.2412 32.0462 29.2412 32.4425C29.2412 32.8387 29.0844 33.2189 28.805 33.5C28.524 33.7793 28.1438 33.9362 27.7475 33.9362C27.3512 33.9362 26.971 33.7793 26.69 33.5L17.15 23.96C16.8972 23.7044 16.7554 23.3594 16.7554 23C16.7554 22.6405 16.8972 22.2955 17.15 22.04L26.69 12.5C26.971 12.2206 27.3512 12.0638 27.7475 12.0638C28.1438 12.0638 28.524 12.2206 28.805 12.5C29.0844 12.781 29.2412 13.1612 29.2412 13.5575C29.2412 13.9537 29.0844 14.3339 28.805 14.615Z" fill="#ECF7FF"/>
</svg>
