<svg width="400" height="165" viewBox="0 0 400 165" fill="none" xmlns="http://www.w3.org/2000/svg">
<path d="M147.52 0C116.91 0 92.0901 24.84 92.0901 55.48C92.0901 86.12 116.91 110.96 147.52 110.96C178.13 110.96 202.95 86.12 202.95 55.48C202.95 24.84 178.13 0 147.52 0ZM147.52 81.2C133.33 81.2 121.82 69.68 121.82 55.48C121.82 41.27 133.33 29.76 147.52 29.76C161.71 29.76 173.22 41.28 173.22 55.48C173.22 69.68 161.71 81.2 147.52 81.2Z" fill="white"/>
<path d="M400 67.2V43.76C400 16.88 382.82 0 352.07 0H313.97C308.97 0 307.26 1.72 307.26 6.57V99.02V104.4V110.96H313.97H317.08H352.07C382.82 110.96 400 94.24 400 67.2ZM369.08 66.73C369.08 77.83 363.63 83.61 350.98 83.61H338.18V27.35H350.98C363.63 27.35 369.08 33.13 369.08 44.23V66.73Z" fill="white"/>
<path d="M294.5 95.4L284.6 76.57C283.35 74.07 281.95 71.88 280.38 69.85C291 63.91 297.24 52.97 297.24 37.66C297.24 13.44 281.94 0 258.36 0H216.27H213.86H207.15V6.56V12.64V102.53V104.39V110.95H213.86H219.07H231.5C236.5 110.95 238.06 109.23 238.06 104.39V74.08H241.65C248.05 74.08 250.71 76.74 253.36 82.05L255.37 86.37L266.5 110.97L276.23 110.95C276.71 110.97 277.2 110.97 277.72 110.97H292.77H294.58H302.78L294.5 95.4ZM238.07 47.98V27.35H254.93C261.64 27.35 265.23 31.26 265.23 37.51C265.23 43.92 261.48 47.98 254.93 47.98H238.07Z" fill="white"/>
<path d="M29.26 110.96V69.01L4.23999 110.96H29.26Z" fill="#F3922B"/>
<path d="M58.91 0.5V49.06L29.26 0.87L28.78 0H11.38H8.06H0V8.06V25.61V110.96L29.26 61.89L58.91 110.96H76.32H79.64H87.7V102.89V85.35V0.5H58.91Z" fill="white"/>
<path d="M322.93 154.05L319.14 145.92H304.59L300.76 154.05H294.65L309.9 121.67H313.88L329.13 154.05H322.93ZM316.54 140.42L311.85 130.44L307.18 140.42H316.54Z" fill="white"/>
<path d="M349.15 154.53C340.26 154.53 333.3 147.29 333.3 138.04V137.96C333.3 128.67 340.3 121.39 349.23 121.39C354.86 121.39 358.17 123.39 361.41 126.38L363 127.86L359.06 131.97L357.52 130.48C355.59 128.62 353.24 126.89 349.19 126.89C343.45 126.89 338.96 131.73 338.96 137.91V138C338.96 144.18 343.47 149.02 349.23 149.02C352.44 149.02 355.1 147.81 357.63 145.2L359.11 143.68L363.16 147.56L361.64 149.1C358.04 152.76 353.95 154.53 349.15 154.53Z" fill="white"/>
<path d="M383.91 154.53C374.76 154.53 367.86 147.42 367.86 138V137.92C367.86 128.5 374.78 121.39 383.95 121.39C393.1 121.39 400 128.5 400 137.92V138C400 147.43 393.08 154.53 383.91 154.53ZM383.91 126.9C377.99 126.9 373.52 131.62 373.52 137.88V137.96C373.52 144.27 378.02 149.02 383.99 149.02C389.89 149.02 394.34 144.3 394.34 138.04V137.96C394.34 132.53 390.44 126.9 383.91 126.9Z" fill="white"/>
<path d="M340.05 164.48V159.05L357.79 159.32V164.75L340.05 164.48Z" fill="white"/>
</svg>
